<?xml version="1.0" encoding="UTF-8" standalone="no"?>
<!-- Created with Inkscape (http://www.inkscape.org/) -->

<svg
   xmlns:dc="http://purl.org/dc/elements/1.1/"
   xmlns:cc="http://creativecommons.org/ns#"
   xmlns:rdf="http://www.w3.org/1999/02/22-rdf-syntax-ns#"
   xmlns:svg="http://www.w3.org/2000/svg"
   xmlns="http://www.w3.org/2000/svg"
   xmlns:xlink="http://www.w3.org/1999/xlink"
   xmlns:sodipodi="http://sodipodi.sourceforge.net/DTD/sodipodi-0.dtd"
   xmlns:inkscape="http://www.inkscape.org/namespaces/inkscape"
   width="32"
   height="32"
   id="svg3136"
   version="1.1"
   inkscape:version="0.48.5 r10040"
   sodipodi:docname="icon-xs.svg">
  <defs
     id="defs3138">
    <linearGradient
       inkscape:collect="always"
       xlink:href="#linearGradient7567"
       id="linearGradient4122"
       gradientUnits="userSpaceOnUse"
       gradientTransform="matrix(1.01883,0,0,1.01591,-0.648953,-0.463736)"
       x1="61.9585"
       y1="3"
       x2="6.2233124"
       y2="58.090912" />
    <linearGradient
       id="linearGradient7567">
      <stop
         style="stop-color:#9bdfee;stop-opacity:1;"
         offset="0"
         id="stop7569" />
      <stop
         style="stop-color:#66b7c9;stop-opacity:1;"
         offset="1"
         id="stop7571" />
    </linearGradient>
    <linearGradient
       inkscape:collect="always"
       xlink:href="#linearGradient7567"
       id="linearGradient4030"
       gradientUnits="userSpaceOnUse"
       gradientTransform="matrix(1.01883,0,0,1.01591,-0.648953,-0.463736)"
       x1="61.9585"
       y1="3"
       x2="6.2233124"
       y2="58.090912" />
  </defs>
  <sodipodi:namedview
     id="base"
     pagecolor="#ffffff"
     bordercolor="#666666"
     borderopacity="1.0"
     inkscape:pageopacity="0.0"
     inkscape:pageshadow="2"
     inkscape:zoom="5.6568542"
     inkscape:cx="-8.6163164"
     inkscape:cy="67.928748"
     inkscape:document-units="px"
     inkscape:current-layer="layer1"
     showgrid="false"
     fit-margin-top="0"
     fit-margin-left="0"
     fit-margin-right="0"
     fit-margin-bottom="0"
     inkscape:window-width="1920"
     inkscape:window-height="1014"
     inkscape:window-x="0"
     inkscape:window-y="27"
     inkscape:window-maximized="1"
     showguides="true"
     inkscape:guide-bbox="true">
    <sodipodi:guide
       orientation="1,0"
       position="-15.556347,87.681237"
       id="guide3089" />
    <sodipodi:guide
       orientation="0,1"
       position="-5.6568526,-18.738335"
       id="guide3091" />
    <sodipodi:guide
       orientation="1,0"
       position="94.398758,83.792149"
       id="guide3095" />
    <sodipodi:guide
       orientation="0,1"
       position="-6.3639594,89.449004"
       id="guide3859" />
  </sodipodi:namedview>
  <metadata
     id="metadata3141">
    <rdf:RDF>
      <cc:Work
         rdf:about="">
        <dc:format>image/svg+xml</dc:format>
        <dc:type
           rdf:resource="http://purl.org/dc/dcmitype/StillImage" />
        <dc:title></dc:title>
      </cc:Work>
    </rdf:RDF>
  </metadata>
  <g
     inkscape:label="Layer 1"
     inkscape:groupmode="layer"
     id="layer1"
     transform="translate(-308.03215,-760.856)">
    <g
       id="g4005"
       transform="matrix(0.50050291,0,0,0.50121554,153.86116,395.46425)">
      <g
         id="g3852"
         style="display:inline"
         transform="translate(308,728.88816)">
        <rect
           ry="2.9927244"
           y="0.12306051"
           x="0.032151747"
           height="63.844788"
           width="63.935692"
           id="rect3854"
           style="fill:url(#linearGradient4030);fill-opacity:1;stroke:none" />
      </g>
      <g
         transform="matrix(0.10520848,0,0,0.10520848,317.04505,739.47658)"
         id="g3022" />
      <g
         transform="matrix(0.10520848,0,0,0.10520848,317.04505,739.47658)"
         id="g3024" />
      <g
         transform="matrix(0.10520848,0,0,0.10520848,317.04505,739.47658)"
         id="g3026" />
      <g
         transform="matrix(0.10520848,0,0,0.10520848,317.04505,739.47658)"
         id="g3028" />
      <g
         transform="matrix(0.10520848,0,0,0.10520848,317.04505,739.47658)"
         id="g3030" />
      <g
         transform="matrix(0.10520848,0,0,0.10520848,317.04505,739.47658)"
         id="g3032" />
      <g
         transform="matrix(0.10520848,0,0,0.10520848,317.04505,739.47658)"
         id="g3034" />
      <g
         transform="matrix(0.10520848,0,0,0.10520848,317.04505,739.47658)"
         id="g3036" />
      <g
         transform="matrix(0.10520848,0,0,0.10520848,317.04505,739.47658)"
         id="g3038" />
      <g
         transform="matrix(0.10520848,0,0,0.10520848,317.04505,739.47658)"
         id="g3040" />
      <g
         transform="matrix(0.10520848,0,0,0.10520848,317.04505,739.47658)"
         id="g3042" />
      <g
         transform="matrix(0.10520848,0,0,0.10520848,317.04505,739.47658)"
         id="g3044" />
      <g
         transform="matrix(0.10520848,0,0,0.10520848,317.04505,739.47658)"
         id="g3046" />
      <g
         transform="matrix(0.10520848,0,0,0.10520848,317.04505,739.47658)"
         id="g3048" />
      <g
         transform="matrix(0.10520848,0,0,0.10520848,317.04505,739.47658)"
         id="g3050" />
      <g
         transform="matrix(2.5917862,0,0,2.5917862,-135.47368,-911.46911)"
         id="g4000">
        <path
           inkscape:connector-curvature="0"
           style="font-size:380.19747925px;font-style:normal;font-weight:normal;line-height:125%;letter-spacing:0px;word-spacing:0px;opacity:0.44117647;fill:#1e2127;fill-opacity:1;stroke:#1e2127;stroke-width:1.81960642;stroke-miterlimit:4;stroke-opacity:1;stroke-dasharray:none;font-family:Sans"
           d="m -122.3125,-90.75 c -1.09682,-0.009 -1.99051,0.83413 -2,1.84375 -0.005,1.00666 0.87518,1.80379 1.96875,1.8125 1.09681,0.009 1.99051,-0.80288 2,-1.8125 0.009,-1.00963 -0.87194,-1.83501 -1.96875,-1.84375 z m -2.375,3.5 c -0.29766,0.0253 -0.49145,0.13235 -0.53125,0.40625 -0.0929,0.63913 -0.0772,0.49711 -0.0312,1.53125 0.0228,0.51545 1.59375,0.4375 1.59375,0.4375 l 0,7.71875 c 0,1.22618 -0.59143,1.84375 -1.8125,1.84375 l -0.4375,0 c 0.005,-0.0384 0.031,-0.0856 0.0312,-0.125 0.007,-0.66917 -0.63402,-1.21296 -1.4375,-1.21875 -0.80348,-0.006 -1.49304,0.54958 -1.5,1.21875 -0.002,0.29363 0.16737,0.5707 0.375,0.78125 0.11611,0.46784 0.39066,0.99462 1.125,1.21875 1.82904,0.53132 4.02204,0.3175 5.8125,-1.0625 0.70766,-0.80469 1.0625,-2.07541 1.0625,-3.8125 l 0.0312,-6.8125 0.0625,-2.0625 c 0,0 -1.06715,0.23051 -2.28125,0.125 -0.75882,-0.0659 -1.56641,-0.22967 -2.0625,-0.1875 z"
           transform="translate(308.03215,729.01122)"
           id="path3793-7" />
        <path
           inkscape:connector-curvature="0"
           style="font-size:380.19747925px;font-style:normal;font-weight:normal;line-height:125%;letter-spacing:0px;word-spacing:0px;fill:#ffffff;fill-opacity:1;stroke:#1e2127;stroke-width:1.25547981;stroke-miterlimit:4;stroke-opacity:1;stroke-dasharray:none;font-family:Sans"
           d="m -122.28125,-94.59375 c -1.0945,-0.009 -2.02178,0.90551 -2.03125,2 -0.005,1.09129 0.90874,1.99056 2,2 1.09449,0.009 1.99053,-0.87425 2,-1.96875 0.009,-1.09449 -0.87426,-2.02178 -1.96875,-2.03125 z m -2.375,3.8125 c -0.29703,0.0274 -0.49152,0.10932 -0.53125,0.40625 -0.0927,0.69286 -0.1081,0.56642 -0.0625,1.6875 0.0227,0.55878 1.625,0.46875 1.625,0.46875 l 0,8.34375 c 0,1.32926 -0.59402,2.03125 -1.8125,2.03125 l -0.4375,0 c 0.005,-0.0416 0.0309,-0.11354 0.0312,-0.15625 0.007,-0.72542 -0.63572,-1.27497 -1.4375,-1.28125 -0.80178,-0.006 -1.49306,0.55583 -1.5,1.28125 -0.002,0.31832 0.16781,0.6155 0.375,0.84375 0.11587,0.50717 0.39221,1.10077 1.125,1.34375 1.82517,0.57598 4.02581,0.33977 5.8125,-1.15625 0.70616,-0.87232 1.0625,-2.24188 1.0625,-4.125 l 0.0312,-7.40625 0.0625,-2.21875 c 0,0 -1.10096,0.27063 -2.3125,0.15625 -0.75721,-0.0715 -1.5362,-0.26446 -2.03125,-0.21875 z"
           transform="translate(308.03215,729.01122)"
           id="path3793" />
        <path
           inkscape:connector-curvature="0"
           style="font-size:380.19747925px;font-style:normal;font-weight:normal;line-height:125%;letter-spacing:0px;word-spacing:0px;fill:#ffffff;fill-opacity:1;stroke:#1e2127;stroke-width:0.51957554;stroke-miterlimit:4;stroke-opacity:1;stroke-dasharray:none;font-family:Sans"
           d="m -122.25,-94.5 c -1.0945,-0.009 -1.99053,0.90551 -2,2 -0.005,1.09129 0.87749,1.95931 1.96875,1.96875 1.09449,0.009 1.99053,-0.843 2,-1.9375 0.009,-1.09449 -0.87426,-2.02178 -1.96875,-2.03125 z m -2.375,3.8125 c -0.29703,0.0274 -0.46027,0.10932 -0.5,0.40625 -0.0927,0.69286 -0.1081,0.56642 -0.0625,1.6875 0.0227,0.55878 1.59375,0.46875 1.59375,0.46875 l 0,8.34375 c 0,1.32926 -0.59402,2.03125 -1.8125,2.03125 l -0.4375,0 c 0.005,-0.0416 0.0309,-0.11354 0.0312,-0.15625 0.007,-0.72542 -0.63572,-1.27497 -1.4375,-1.28125 -0.80178,-0.006 -1.46181,0.55583 -1.46875,1.28125 -0.002,0.31832 0.13656,0.6155 0.34375,0.84375 0.11587,0.50717 0.39221,1.10077 1.125,1.34375 1.82517,0.57598 4.02581,0.33977 5.8125,-1.15625 0.70616,-0.87232 1.0625,-2.24188 1.0625,-4.125 l 0.0312,-7.40625 0.0625,-2.25 c 0,0 -1.06971,0.27063 -2.28125,0.15625 -0.75721,-0.0715 -1.56745,-0.23321 -2.0625,-0.1875 z"
           transform="translate(308.03215,729.01122)"
           id="path4040" />
      </g>
    </g>
  </g>
</svg>
