<?xml version="1.0" encoding="UTF-8" standalone="no"?>
<!-- Created with Inkscape (http://www.inkscape.org/) -->

<svg
   xmlns:dc="http://purl.org/dc/elements/1.1/"
   xmlns:cc="http://creativecommons.org/ns#"
   xmlns:rdf="http://www.w3.org/1999/02/22-rdf-syntax-ns#"
   xmlns:svg="http://www.w3.org/2000/svg"
   xmlns="http://www.w3.org/2000/svg"
   xmlns:xlink="http://www.w3.org/1999/xlink"
   xmlns:sodipodi="http://sodipodi.sourceforge.net/DTD/sodipodi-0.dtd"
   xmlns:inkscape="http://www.inkscape.org/namespaces/inkscape"
   width="24"
   height="24"
   id="svg3136"
   version="1.1"
   inkscape:version="0.48.5 r10040"
   sodipodi:docname="icon-md.svg">
  <defs
     id="defs3138">
    <linearGradient
       id="linearGradient7567">
      <stop
         style="stop-color:#9bdfee;stop-opacity:1;"
         offset="0"
         id="stop7569" />
      <stop
         style="stop-color:#66b7c9;stop-opacity:1;"
         offset="1"
         id="stop7571" />
    </linearGradient>
    <linearGradient
       inkscape:collect="always"
       xlink:href="#linearGradient7567"
       id="linearGradient4030"
       gradientUnits="userSpaceOnUse"
       gradientTransform="matrix(1.01883,0,0,1.01591,-0.648953,-0.463736)"
       x1="61.9585"
       y1="3"
       x2="6.2233124"
       y2="58.090912" />
    <linearGradient
       inkscape:collect="always"
       xlink:href="#linearGradient7567"
       id="linearGradient4088"
       gradientUnits="userSpaceOnUse"
       gradientTransform="matrix(1.01883,0,0,1.01591,-0.648953,-0.463736)"
       x1="61.9585"
       y1="3"
       x2="6.2233124"
       y2="58.090912" />
  </defs>
  <sodipodi:namedview
     id="base"
     pagecolor="#ffffff"
     bordercolor="#666666"
     borderopacity="1.0"
     inkscape:pageopacity="0.0"
     inkscape:pageshadow="2"
     inkscape:zoom="16"
     inkscape:cx="15.360286"
     inkscape:cy="24.292548"
     inkscape:document-units="px"
     inkscape:current-layer="layer1"
     showgrid="false"
     fit-margin-top="0"
     fit-margin-left="0"
     fit-margin-right="0"
     fit-margin-bottom="0"
     inkscape:window-width="1920"
     inkscape:window-height="1014"
     inkscape:window-x="0"
     inkscape:window-y="27"
     inkscape:window-maximized="1"
     showguides="true"
     inkscape:guide-bbox="true">
    <sodipodi:guide
       orientation="1,0"
       position="-15.556348,87.681235"
       id="guide3089" />
    <sodipodi:guide
       orientation="0,1"
       position="-5.6568536,-18.738337"
       id="guide3091" />
    <sodipodi:guide
       orientation="1,0"
       position="94.398757,83.792147"
       id="guide3095" />
    <sodipodi:guide
       orientation="0,1"
       position="-6.3639604,89.449002"
       id="guide3859" />
  </sodipodi:namedview>
  <metadata
     id="metadata3141">
    <rdf:RDF>
      <cc:Work
         rdf:about="">
        <dc:format>image/svg+xml</dc:format>
        <dc:type
           rdf:resource="http://purl.org/dc/dcmitype/StillImage" />
        <dc:title></dc:title>
      </cc:Work>
    </rdf:RDF>
  </metadata>
  <g
     inkscape:label="Layer 1"
     inkscape:groupmode="layer"
     id="layer1"
     transform="translate(-308.03215,-768.856)">
    <g
       id="g3022"
       transform="matrix(0.05265715,0,0,0.05273213,312.54313,766.1014)" />
    <g
       id="g3024"
       transform="matrix(0.05265715,0,0,0.05273213,312.54313,766.1014)" />
    <g
       id="g3026"
       transform="matrix(0.05265715,0,0,0.05273213,312.54313,766.1014)" />
    <g
       id="g3028"
       transform="matrix(0.05265715,0,0,0.05273213,312.54313,766.1014)" />
    <g
       id="g3030"
       transform="matrix(0.05265715,0,0,0.05273213,312.54313,766.1014)" />
    <g
       id="g3032"
       transform="matrix(0.05265715,0,0,0.05273213,312.54313,766.1014)" />
    <g
       id="g3034"
       transform="matrix(0.05265715,0,0,0.05273213,312.54313,766.1014)" />
    <g
       id="g3036"
       transform="matrix(0.05265715,0,0,0.05273213,312.54313,766.1014)" />
    <g
       id="g3038"
       transform="matrix(0.05265715,0,0,0.05273213,312.54313,766.1014)" />
    <g
       id="g3040"
       transform="matrix(0.05265715,0,0,0.05273213,312.54313,766.1014)" />
    <g
       id="g3042"
       transform="matrix(0.05265715,0,0,0.05273213,312.54313,766.1014)" />
    <g
       id="g3044"
       transform="matrix(0.05265715,0,0,0.05273213,312.54313,766.1014)" />
    <g
       id="g3046"
       transform="matrix(0.05265715,0,0,0.05273213,312.54313,766.1014)" />
    <g
       id="g3048"
       transform="matrix(0.05265715,0,0,0.05273213,312.54313,766.1014)" />
    <g
       id="g3050"
       transform="matrix(0.05265715,0,0,0.05273213,312.54313,766.1014)" />
    <g
       id="g4080"
       transform="matrix(0.75,0,0,0.75000001,77.008037,198.21399)">
      <g
         id="g3852"
         style="display:inline"
         transform="matrix(0.50050291,0,0,0.50121554,308.01606,760.79432)">
        <rect
           ry="2.9927244"
           y="0.12306051"
           x="0.032151747"
           height="63.844788"
           width="63.935692"
           id="rect3854"
           style="fill:url(#linearGradient4088);fill-opacity:1;stroke:none" />
      </g>
      <g
         transform="matrix(1.1671227,0,0,1.1671227,-54.153134,-128.13778)"
         id="g4075">
        <path
           inkscape:connector-curvature="0"
           style="font-size:380.19747925px;font-style:normal;font-weight:normal;line-height:125%;letter-spacing:0px;word-spacing:0px;opacity:0.44117647;fill:#1e2127;fill-opacity:1;stroke:#1e2127;stroke-width:2.36206698;stroke-miterlimit:4;stroke-opacity:1;stroke-dasharray:none;font-family:Sans"
           d="m 326.97107,764.85082 c -1.42279,-0.0117 -2.58208,1.08357 -2.59439,2.39511 -0.006,1.3077 1.13528,2.34321 2.55386,2.35452 1.42277,0.0117 2.58208,-1.04298 2.59439,-2.35452 0.0117,-1.31155 -1.13108,-2.38375 -2.55386,-2.39511 z m -3.08084,4.54665 c -0.38612,0.0329 -0.63751,0.17193 -0.68913,0.52774 -0.12051,0.83026 -0.10015,0.64577 -0.0405,1.98916 0.0296,0.66959 2.06741,0.56833 2.06741,0.56833 l 0,10.02699 c 0,1.59287 -0.7672,2.39512 -2.35117,2.39512 l -0.56752,0 c 0.006,-0.0499 0.0402,-0.1112 0.0405,-0.16238 0.009,-0.86928 -0.82245,-1.57569 -1.86472,-1.58321 -1.04227,-0.008 -1.93677,0.71393 -1.94579,1.58321 -0.003,0.38143 0.21711,0.74136 0.48644,1.01487 0.15062,0.60775 0.50677,1.29206 1.45935,1.58321 2.37262,0.69021 5.21738,0.41245 7.53996,-1.38023 0.91797,-1.04533 1.37827,-2.69605 1.37827,-4.9526 l 0.0405,-8.84974 0.0811,-2.67928 c 0,0 -1.3843,0.29945 -2.95923,0.16239 -0.98433,-0.0856 -2.03194,-0.29836 -2.67546,-0.24358 z"
           id="path3793-7" />
        <path
           inkscape:connector-curvature="0"
           style="font-size:380.19747925px;font-style:normal;font-weight:normal;line-height:125%;letter-spacing:0px;word-spacing:0px;fill:#ffffff;fill-opacity:1;stroke:#1e2127;stroke-width:1.62976301;stroke-miterlimit:4;stroke-opacity:1;stroke-dasharray:none;font-family:Sans"
           d="m 327.01161,762.75765 c -1.41978,-0.0117 -2.62265,1.1763 -2.63493,2.59809 -0.006,1.41763 1.17881,2.58582 2.59439,2.59809 1.41977,0.0117 2.58211,-1.13569 2.5944,-2.55749 0.0117,-1.42179 -1.13409,-2.62638 -2.55386,-2.63869 z m -3.08084,4.95261 c -0.38531,0.0356 -0.6376,0.14201 -0.68914,0.52773 -0.12025,0.90006 -0.14022,0.73581 -0.0811,2.19214 0.0294,0.72588 2.10794,0.60893 2.10794,0.60893 l 0,10.83889 c 0,1.72677 -0.77056,2.63868 -2.35117,2.63868 l -0.56752,0 c 0.006,-0.054 0.0401,-0.14749 0.0405,-0.20297 0.009,-0.94236 -0.82465,-1.65624 -1.86472,-1.6644 -1.04006,-0.008 -1.93679,0.72204 -1.94579,1.6644 -0.003,0.41351 0.21768,0.79956 0.48645,1.09606 0.1503,0.65884 0.50877,1.42995 1.45934,1.74559 2.36761,0.74823 5.22227,0.44138 7.53996,-1.50201 0.91603,-1.13319 1.37827,-2.9123 1.37827,-5.35856 l 0.0405,-9.62104 0.0811,-2.88225 c 0,0 -1.42817,0.35156 -2.99977,0.20297 -0.98225,-0.0929 -1.99275,-0.34354 -2.63493,-0.28416 z"
           id="path3793" />
        <path
           inkscape:connector-curvature="0"
           style="font-size:380.19747925px;font-style:normal;font-weight:normal;line-height:125%;letter-spacing:0px;word-spacing:0px;fill:#ffffff;fill-opacity:1;stroke:#1e2127;stroke-width:0.6744712;stroke-miterlimit:4;stroke-opacity:1;stroke-dasharray:none;font-family:Sans"
           d="m 327.05215,762.87944 c -1.41978,-0.0117 -2.58211,1.1763 -2.5944,2.59809 -0.006,1.41763 1.13828,2.54523 2.55386,2.55749 1.41977,0.0117 2.58211,-1.0951 2.59439,-2.5169 0.0117,-1.42179 -1.13408,-2.62638 -2.55385,-2.63868 z m -3.08084,4.9526 c -0.38531,0.0356 -0.59706,0.14201 -0.6486,0.52774 -0.12025,0.90005 -0.14023,0.7358 -0.0811,2.19213 0.0294,0.72588 2.06741,0.60893 2.06741,0.60893 l 0,10.8389 c 0,1.72676 -0.77056,2.63868 -2.35117,2.63868 l -0.56752,0 c 0.006,-0.054 0.0401,-0.1475 0.0405,-0.20298 0.009,-0.94235 -0.82465,-1.65624 -1.86472,-1.6644 -1.04007,-0.008 -1.89625,0.72205 -1.90526,1.6644 -0.003,0.41351 0.17715,0.79956 0.44591,1.09607 0.15031,0.65884 0.50878,1.42995 1.45935,1.74559 2.3676,0.74822 5.22227,0.44138 7.53996,-1.50202 0.91602,-1.13318 1.37827,-2.9123 1.37827,-5.35855 l 0.0405,-9.62104 0.0811,-2.92285 c 0,0 -1.38762,0.35156 -2.95923,0.20297 -0.98225,-0.0929 -2.03329,-0.30295 -2.67546,-0.24357 z"
           id="path4040" />
      </g>
    </g>
  </g>
</svg>
